<mxfile host="app.diagrams.net" modified="2023-12-15T16:59:40.814Z" agent="Mozilla/5.0 (X11; Linux x86_64) AppleWebKit/537.36 (KHTML, like Gecko) Chrome/115.0.0.0 Safari/537.36" version="22.1.11" etag="WBZqSbO8PV0868dJVQCP" type="github">
  <diagram name="Page-1" id="bGrYDDeqOxCqvTj7tzp3">
    <mxGraphModel>
      <root>
        <mxCell id="0" />
        <mxCell id="1" parent="0" />
      </root>
    </mxGraphModel>
  </diagram>
</mxfile>
